<?xml version="1.0" encoding="UTF-8" standalone="no"?>
<!-- Creator: CorelDRAW -->

<svg
   xmlns:dc="http://purl.org/dc/elements/1.1/"
   xmlns:cc="http://creativecommons.org/ns#"
   xmlns:rdf="http://www.w3.org/1999/02/22-rdf-syntax-ns#"
   xmlns:svg="http://www.w3.org/2000/svg"
   xmlns="http://www.w3.org/2000/svg"
   xmlns:sodipodi="http://sodipodi.sourceforge.net/DTD/sodipodi-0.dtd"
   xmlns:inkscape="http://www.inkscape.org/namespaces/inkscape"
   style="shape-rendering:geometricPrecision;text-rendering:geometricPrecision;image-rendering:optimizeQuality"
   xml:space="preserve"
   fill-rule="evenodd"
   height="8.2677in"
   width="8.2677in"
   viewBox="0 0 8267.72 8267.72"
   id="svg2"
   version="1.1"
   inkscape:version="0.91 r13725"
   sodipodi:docname="Symbol_OK.svg"><metadata
     id="metadata16"><rdf:RDF><cc:Work
         rdf:about=""><dc:format>image/svg+xml</dc:format><dc:type
           rdf:resource="http://purl.org/dc/dcmitype/StillImage" /><dc:title></dc:title></cc:Work></rdf:RDF></metadata><sodipodi:namedview
     pagecolor="#ffffff"
     bordercolor="#666666"
     borderopacity="1"
     objecttolerance="10"
     gridtolerance="10"
     guidetolerance="10"
     inkscape:pageopacity="0"
     inkscape:pageshadow="2"
     inkscape:window-width="998"
     inkscape:window-height="773"
     id="namedview14"
     showgrid="false"
     inkscape:zoom="0.31716465"
     inkscape:cx="-141.88214"
     inkscape:cy="372.04651"
     inkscape:window-x="0"
     inkscape:window-y="0"
     inkscape:window-maximized="0"
     inkscape:current-layer="svg2" /><defs
     id="defs4"><style
       type="text/css"
       id="style6"><![CDATA[
    .fil0 {fill:#006C3B}
    .fil1 {fill:#77C06C}
   ]]></style></defs><g
     id="Symbol-Rahmen"><path
       class="fil0"
       d="m716.82 4324.3c731.31 313.61 827.71 357.49 1567.8 675.18 40.476 17.968 72.394 31.791 101.49 46.122 50.76 27.555 77.339 53.453 127.28-15.287 16.882-17.106 46.268-32.858 65.602-65.449 1771.2-1641.6 3104.2-2926.1 4875.4-4567.7 311.45-314.04 957.14-82.315 668.75 262.42-1819 2115.1-3013.9 3557.1-3898.3 4727.1-378.15 498.87-701.18 948.44-991.49 1378.7-190.68 277.3-364.94 546.58-526.53 815.85-46.827 81.508-85.945 138.84-146.8 184.88-95.28 67.846-199.82 75.197-302.62 18.468-38.555-25.295-76.043-57.032-113.86-103.76-22.693-28.032-45.508-64.331-68.74-99.854l-553.4-911.48-623.12-1098.3c-170.56-300.64-307.26-550.24-571.63-1007.6-28.921-43.067-111.65-155.14-87.535-238.72 20.748-95.457 124.86-147.42 234.97-102.71 98.807 41.689 197.58 84.988 242.72 102.13z"
       id="path9" /></g><g
     id="Symbol"><path
       class="fil1"
       d="m431.48 4322.7c694.72 300.72 1260.1 541.86 1963.1 846.5 48.492 21.169 97.638 26.933 146.55-15.724 1682.6-1574.1 3327.4-3117.8 5010-4692 220.55-198.94 645.36-76.925 509.09 107.46-2981.1 3437.6-4547.9 5449-5497.6 7037.3-86.311 145.08-250.18 136.88-339.06-2.2835-209.35-332.54-525.42-854.16-534.06-867.24-673.5-1175.6-694.99-1224.6-1337.9-2347.4-30.346-55.043 35.429-95.299 79.819-66.681z"
       id="path12" /></g><path
     style="fill:#ffffff;stroke:none;stroke-width:1px;stroke-linecap:butt;stroke-linejoin:miter;stroke-opacity:1"
     d="m 207.92258,690.60247 c -2.0017,-1.27404 -14.3943,-19.61262 -27.5391,-40.7524 C 152.07173,604.31842 33.421127,397.00093 33.421127,393.06361 c 0,-1.50153 1.269462,-2.73007 2.821026,-2.73007 1.551564,0 43.689646,17.63381 93.640177,39.18624 66.14426,28.53963 92.24313,38.42418 96.06027,36.38129 2.88261,-1.54273 106.36623,-97.56642 229.9636,-213.38598 C 579.50355,136.69552 683.62852,40.210805 687.29501,38.104611 c 13.77578,-7.913438 42.99653,-2.155105 39.41776,7.767785 -0.67214,1.863659 -33.23586,40.757527 -72.3638,86.430824 C 461.74941,357.12085 344.987,505.90263 266.26988,626.80378 c -18.62947,28.6129 -36.14318,55.2158 -38.91936,59.11756 -5.07956,7.13904 -12.68645,8.9719 -19.42794,4.68113 z"
     id="path3344"
     inkscape:connector-curvature="0"
     transform="scale(11.111137,11.111137)" /><path
     style="fill:#ffffff"
     d="M 207.1412,686.95525 C 192.21562,670.83971 33.647645,397.88426 37.166816,394.36511 c 1.046088,-1.04612 21.416988,6.3466 45.268664,16.42821 95.5441,40.38452 132.989,55.2107 139.43981,55.2107 4.28871,0 21.97876,-14.15858 48.3564,-38.70302 C 293.10824,406.01432 384.89473,320.52909 474.20165,237.3338 715.18362,12.843228 687.14922,37.204651 704.50424,37.204651 c 27.72828,0 26.64705,2.258708 -37.04741,77.391019 -219.50533,258.92285 -307.39328,370.62089 -398.46965,506.4208 -24.163,36.02838 -46.68779,66.9806 -50.05507,68.78273 -4.80273,2.57034 -7.34415,1.95734 -11.79091,-2.84395 z"
     id="path4146"
     inkscape:connector-curvature="0"
     transform="scale(11.111137,11.111137)" /><path
     style="fill:#ffffff"
     d="M 200.93958,696.8865 C 185.3945,684.50413 22.243914,401.19686 23.909514,389.47787 c 1.940415,-13.6526 14.593859,-10.15596 105.186336,29.06714 48.2724,20.90012 89.353,38.0002 91.29022,38.0002 3.94972,0 12.62416,-7.99755 222.28622,-204.94111 C 655.88016,51.329857 675.74587,32.927812 683.36443,28.645801 c 3.74736,-2.106195 13.36142,-3.879721 21.36462,-3.941171 16.88485,-0.129643 31.17188,8.960228 31.15678,19.822968 -0.006,4.306815 -19.57308,29.777625 -52.50573,68.347532 -212.73956,249.15535 -318.87141,383.67542 -404.22881,512.35218 -25.30705,38.15053 -48.17175,71.09301 -50.81045,73.20551 -6.8691,5.49926 -19.44722,4.78944 -27.40126,-1.54632 z m 23.11216,-5.36968 c 3.65257,-2.55835 14.78998,-17.81068 24.74978,-33.89406 C 323.85181,536.42946 475.69898,342.14097 681.94441,103.41632 708.16263,73.069304 729.24114,46.147333 728.78554,43.589716 726.48201,30.65823 695.9607,27.88584 681.13026,39.26097 c -4.17764,3.204312 -94.65557,87.47438 -201.06203,187.26682 -276.97899,259.76247 -251.6417,237.11294 -263.19026,235.2715 -5.4,-0.86103 -48.41879,-18.1868 -95.59731,-38.5017 -58.225262,-25.07162 -86.810658,-35.9047 -88.990422,-33.72492 -2.179764,2.17976 16.304982,37.50554 57.545657,109.97415 89.616225,157.47473 114.667625,196.62156 125.824965,196.62156 0.96241,0 4.73831,-2.0932 8.39088,-4.65156 z"
     id="path4148"
     inkscape:connector-curvature="0"
     transform="scale(11.111137,11.111137)" /></svg>